HIERARCHY
ROOT Hips
{
  OFFSET 1.44925e-005 102.336 -0.101585
  CHANNELS 6 Xposition Yposition Zposition Zrotation Xrotation Yrotation
  JOINT LeftUpLeg
  {
    OFFSET 8.9458 -8.66707 0.101652
    CHANNELS 3 Zrotation Xrotation Yrotation
    JOINT LeftLeg
    {
      OFFSET 0 -44.4227 1.3727
      CHANNELS 3 Zrotation Xrotation Yrotation
      JOINT LeftFoot
      {
        OFFSET -0.253549 -42.0924 -1.46059
        CHANNELS 3 Zrotation Xrotation Yrotation
        JOINT LeftToes
        {
          OFFSET -0.04 -4.41509 8.4991
          CHANNELS 3 Zrotation Xrotation Yrotation
          End Site
          {
            OFFSET 0.08 -0.047448 9.77979
          }
        }
      }
    }
  }
  JOINT Spine
  {
    OFFSET 0 11.8905 0
    CHANNELS 3 Zrotation Xrotation Yrotation
    JOINT Spine1
    {
      OFFSET 0 25.6574 0.127663
      CHANNELS 3 Zrotation Xrotation Yrotation
      JOINT RightShoulder
      {
        OFFSET -8.99 -0.362252 -0.22
        CHANNELS 3 Zrotation Xrotation Yrotation
        JOINT RightArm
        {
          OFFSET -10.2827 -0.00338 0.322123
          CHANNELS 3 Zrotation Xrotation Yrotation
          JOINT RightForeArm
          {
            OFFSET -26.364 0.099144 -1.42434
            CHANNELS 3 Zrotation Xrotation Yrotation
            JOINT RightHand
            {
              OFFSET -22.0324 0.085362 1.02216
              CHANNELS 3 Zrotation Xrotation Yrotation
              End Site
              {
                OFFSET -13.3284 -0.6 1.50291
              }
            }
          }
        }
      }
      JOINT LeftShoulder1
      {
        OFFSET 8.99 -0.362252 -0.22
        CHANNELS 3 Zrotation Xrotation Yrotation
        JOINT LeftArm
        {
          OFFSET 10.2827 -0.00337999 0.322123
          CHANNELS 3 Zrotation Xrotation Yrotation
          JOINT LeftForeArm
          {
            OFFSET 26.2597 0.099144 -1.42434
            CHANNELS 3 Zrotation Xrotation Yrotation
            JOINT LeftHand
            {
              OFFSET 22.0902 0.085362 1.02216
              CHANNELS 3 Zrotation Xrotation Yrotation
              End Site
              {
                OFFSET 13.419 -0.6 1.50291
              }
            }
          }
        }
      }
      JOINT Head
      {
        OFFSET 0 8.73416 0.011341
        CHANNELS 3 Zrotation Xrotation Yrotation
        End Site
        {
          OFFSET -0.29 12.7742 2.51395
        }
      }
    }
  }
  JOINT RightUpLeg
  {
    OFFSET -8.9458 -8.66707 0.101652
    CHANNELS 3 Zrotation Xrotation Yrotation
    JOINT RightLeg
    {
      OFFSET 0 -44.4227 1.3727
      CHANNELS 3 Zrotation Xrotation Yrotation
      JOINT RightFoot
      {
        OFFSET 0.253549 -42.0924 -1.46059
        CHANNELS 3 Zrotation Xrotation Yrotation
        JOINT RightToes
        {
          OFFSET 0.04 -4.41509 8.4991
          CHANNELS 3 Zrotation Xrotation Yrotation
          End Site
          {
            OFFSET -0.08 -0.137448 9.77979
          }
        }
      }
    }
  }
}
MOTION
Frames:	8
Frame Time:	0.0333333
66.9288 94.6863 0.389719 5.55476 -0.491394 -93.385 -1.08458 -38.0103 -1.47364 3.1715 73.6979 15.5652 -10.7971 -16.2663 -0.74687 -1.30608e-009 8.75234e-006 -1.45869e-008 6.94041 47.7396 -2.90861 4.73128 2.05678 -1.72004 35.1869 1.82814 0.400189 36.6277 -15.2096 17.5923 -8.30282 25.3841 76.1204 -15.7006 9.07628 0.954886 -35.6919 2.74274 -3.05504 -42.8695 -17.4465 -44.9918 24.7507 21.109 -97.5412 5.82328 9.61819 -0.917488 0.16455 -49.0929 2.96068 2.98316 -35.3905 -1.06942 -1.16753 44.4829 -14.2433 0.865578 -18.1201 -0.161101 0.0462048 0.000530889 0.662642 
65.4382 94.821 0.355644 4.92938 -0.741235 -94.2156 -0.536025 -39.2566 -0.767471 2.54104 69.8897 15.6339 -11.5354 -16.5475 -0.831088 -1.30608e-009 8.75234e-006 -1.45869e-008 6.19356 47.6705 -2.59435 4.73118 2.15224 -1.73849 35.0991 1.82568 0.407533 37.1977 -15.4839 16.7498 -8.07459 25.4073 75.6088 -16.1248 9.05388 0.945126 -35.1546 2.6944 -3.02538 -43.3931 -17.833 -46.8214 24.7404 20.9894 -97.8059 5.82328 9.61819 -0.917488 -0.0990617 -48.9198 3.62207 2.94681 -33.9596 -0.690992 -1.15542 44.9434 -13.8002 1.22492 -19.1513 -0.122937 0.0462048 0.000530889 0.662642 
63.9841 94.8787 0.342062 4.27111 -1.05635 -95.0225 0.0373776 -40.1377 -0.125438 2.02509 65.1257 15.3735 -12.0498 -16.4627 -0.863758 -1.30608e-009 8.75234e-006 -1.45869e-008 5.17848 47.6189 -2.18541 4.71042 2.23493 -1.73497 35.0833 1.8217 0.396807 37.6236 -15.476 15.8997 -8.17702 25.4493 75.5086 -16.2707 9.02289 1.11839 -34.9347 2.67414 -3.01173 -43.299 -18.4156 -48.0549 24.7735 20.8715 -98.0653 5.82328 9.61819 -0.917488 -0.320724 -48.5468 4.28338 2.84988 -32.512 -0.139715 -1.1546 45.4131 -13.6112 1.54467 -20.4115 -0.0809161 0.0462048 0.000530889 0.662642 
62.5668 94.8894 0.368132 3.58935 -1.27913 -95.7425 0.612234 -40.6115 0.150905 1.63804 59.6549 14.9141 -12.1559 -16.4095 -0.866679 -1.30608e-009 8.75234e-006 -1.45869e-008 4.23332 47.6155 -1.85661 4.66538 2.27986 -1.75417 35.2622 1.82073 0.373475 37.7235 -15.1513 15.0837 -8.35181 25.4704 75.6575 -15.9896 9.02507 1.22401 -34.8109 2.66272 -3.00392 -42.8253 -19.0828 -48.4558 24.6274 20.6957 -98.4594 5.82328 9.61819 -0.917488 -0.459605 -48.0135 4.96246 2.82324 -31.0473 0.529007 -1.16757 45.8915 -13.716 1.83744 -21.6874 -0.0346606 0.0462048 0.000530889 0.662642 
61.1938 94.8623 0.456895 2.96444 -1.35959 -96.4314 1.30259 -40.7954 0.173651 1.36729 53.6825 14.7384 -12.3754 -16.2289 -0.86443 -1.30608e-009 8.75234e-006 -1.45869e-008 3.50503 47.5915 -1.64852 4.53576 2.36877 -1.78672 35.4543 1.82511 0.365933 37.779 -14.6241 14.463 -8.33445 25.4512 75.7496 -15.6033 9.05682 1.15094 -34.4665 2.6315 -2.98317 -42.377 -19.6396 -48.0907 24.2731 20.5098 -98.8951 5.82328 9.61819 -0.917488 -0.601542 -47.5867 5.45413 2.90942 -29.7181 1.28095 -1.18555 46.4502 -13.8792 2.19107 -22.7883 0.0247604 0.0462048 0.000530889 0.662642 
59.8508 94.762 0.626128 2.43052 -1.31823 -97.2134 2.22997 -40.7494 0.430958 1.22494 47.4903 15.4996 -12.4506 -15.3495 -0.777357 -1.30608e-009 8.75234e-006 -1.45869e-008 2.98003 47.5308 -1.49166 4.24225 2.56437 -1.75602 35.4543 1.8324 0.383484 38.0632 -13.9843 14.108 -8.01274 25.3841 75.6588 -15.5263 9.067 1.1052 -33.8942 2.57897 -2.94608 -42.0608 -20.0101 -47.2518 24.0078 20.2833 -99.428 5.82328 9.61819 -0.917488 -0.73725 -47.4064 5.66359 3.1032 -28.5849 2.15692 -1.20361 47.1497 -13.9536 2.68901 -23.8439 0.111834 0.0462048 0.000530889 0.662642 
58.5213 94.6088 0.878097 1.97057 -1.20191 -98.088 3.276 -40.4681 1.14893 1.18206 41.4029 17.184 -11.7169 -13.8709 -0.580413 -1.30608e-009 8.75234e-006 -1.45869e-008 2.58836 47.5202 -1.34741 3.74744 2.86645 -1.61737 35.3405 1.83736 0.406336 38.4361 -13.2604 13.9714 -7.53481 25.2748 75.587 -15.6769 9.04426 1.21629 -33.3802 2.53009 -2.90727 -41.6816 -20.2624 -46.146 23.9748 19.883 -100.334 5.82328 9.61819 -0.917488 -0.708678 -47.3082 5.76687 3.37927 -27.5462 3.22903 -1.22682 47.8835 -14.0954 3.30882 -24.9165 0.228108 0.0462048 0.000530889 0.662642 
57.2128 94.4539 1.21335 1.64469 -1.0519 -98.9474 4.23213 -40.1237 2.10188 1.17741 35.7362 19.1762 -10.5021 -12.4521 -0.386789 -1.30608e-009 8.75234e-006 -1.45869e-008 2.26923 47.6059 -1.21971 3.14352 3.23315 -1.40541 35.302 1.83998 0.416302 38.6525 -12.5656 14.0587 -7.26437 25.174 75.8242 -15.6925 9.03371 1.29174 -33.1493 2.50546 -2.88256 -41.1467 -20.4542 -44.8483 23.9686 19.2711 -101.698 5.82328 9.61819 -0.917488 -0.47459 -47.1527 5.97678 3.71338 -26.6126 4.51924 -1.25919 48.5381 -14.4558 4.03134 -25.8706 0.37053 0.0462048 0.000530889 0.662642 
